<?xml version="1.0" encoding="UTF-8"?>
<svg id="Layer_1" data-name="Layer 1" xmlns="http://www.w3.org/2000/svg" xmlns:xlink="http://www.w3.org/1999/xlink" viewBox="0 0 430 430">
  <defs>
    <style>
      .cls-1, .cls-2, .cls-3, .cls-4, .cls-5, .cls-6, .cls-7, .cls-8 {
        fill: none;
      }

      .cls-9 {
        opacity: .3;
      }

      .cls-9, .cls-10, .cls-11 {
        fill: #fff;
      }

      .cls-2 {
        stroke: #f1c500;
      }

      .cls-2, .cls-3, .cls-4, .cls-5, .cls-6, .cls-7, .cls-8 {
        stroke-linejoin: round;
      }

      .cls-2, .cls-3, .cls-5, .cls-7 {
        stroke-width: 2.13px;
      }

      .cls-3 {
        stroke: #6fc7ea;
      }

      .cls-4 {
        stroke: #333;
        stroke-width: .68px;
      }

      .cls-5 {
        stroke: #00a189;
      }

      .cls-6 {
        stroke-dasharray: 6.02 6.02;
      }

      .cls-6, .cls-8 {
        stroke: #666;
        stroke-width: 1.36px;
      }

      .cls-7 {
        stroke: #dc4633;
      }

      .cls-10 {
        font-family: Roboto-Regular, Roboto;
        font-size: 12px;
        font-variation-settings: 'wght' 400, 'wdth' 100;
      }

      .cls-12 {
        fill: #191919;
      }

      .cls-13 {
        letter-spacing: 0em;
      }

      .cls-11 {
        font-family: TradeGothic-Bold, TradeGothic;
        font-size: 18px;
        font-weight: 700;
      }

      .cls-14 {
        clip-path: url(#clippath);
      }
    </style>
    <clipPath id="clippath">
      <rect class="cls-1" x=".5" y="-.02" width="429.5" height="430.04"/>
    </clipPath>
  </defs>
  <g class="cls-14">
    <rect class="cls-12" x="-15.61" y="-16.15" width="461.71" height="462.29"/>
  </g>
  <line class="cls-4" x1="58.69" y1="316.24" x2="395.74" y2="316.24"/>
  <line class="cls-4" x1="58.69" y1="214.63" x2="395.74" y2="214.63"/>
  <line class="cls-4" x1="58.69" y1="113.01" x2="395.74" y2="113.01"/>
  <line class="cls-4" x1="73.91" y1="361" x2="73.91" y2="59.83"/>
  <line class="cls-4" x1="108.05" y1="361" x2="108.05" y2="59.83"/>
  <line class="cls-4" x1="142.08" y1="361" x2="142.08" y2="59.83"/>
  <line class="cls-4" x1="176.11" y1="361" x2="176.11" y2="59.83"/>
  <line class="cls-4" x1="210.15" y1="361" x2="210.15" y2="59.83"/>
  <line class="cls-4" x1="244.19" y1="361" x2="244.19" y2="59.83"/>
  <line class="cls-4" x1="278.22" y1="361" x2="278.22" y2="59.83"/>
  <line class="cls-4" x1="312.26" y1="361" x2="312.26" y2="59.83"/>
  <line class="cls-4" x1="346.38" y1="361" x2="346.38" y2="59.83"/>
  <line class="cls-4" x1="380.52" y1="361" x2="380.52" y2="59.83"/>
  <g>
    <line class="cls-8" x1="58.69" y1="265.43" x2="61.69" y2="265.43"/>
    <line class="cls-6" x1="67.71" y1="265.43" x2="389.73" y2="265.43"/>
    <line class="cls-8" x1="392.74" y1="265.43" x2="395.74" y2="265.43"/>
  </g>
  <g>
    <line class="cls-8" x1="58.83" y1="361" x2="61.83" y2="361"/>
    <line class="cls-6" x1="67.85" y1="361" x2="389.87" y2="361"/>
    <line class="cls-8" x1="392.88" y1="361" x2="395.88" y2="361"/>
  </g>
  <g>
    <line class="cls-8" x1="58.69" y1="163.81" x2="61.69" y2="163.81"/>
    <line class="cls-6" x1="67.71" y1="163.81" x2="389.73" y2="163.81"/>
    <line class="cls-8" x1="392.74" y1="163.81" x2="395.74" y2="163.81"/>
  </g>
  <g>
    <line class="cls-8" x1="58.69" y1="62.2" x2="61.69" y2="62.2"/>
    <line class="cls-6" x1="67.71" y1="62.2" x2="389.73" y2="62.2"/>
    <line class="cls-8" x1="392.74" y1="62.2" x2="395.74" y2="62.2"/>
  </g>
  <line class="cls-4" x1="90.98" y1="361" x2="90.98" y2="59.83"/>
  <line class="cls-4" x1="125.11" y1="361" x2="125.11" y2="59.83"/>
  <line class="cls-4" x1="159.05" y1="361" x2="159.05" y2="59.83"/>
  <line class="cls-4" x1="193.18" y1="361" x2="193.18" y2="59.83"/>
  <line class="cls-4" x1="227.12" y1="361" x2="227.12" y2="59.83"/>
  <line class="cls-4" x1="261.25" y1="361" x2="261.25" y2="59.83"/>
  <line class="cls-4" x1="295.19" y1="361" x2="295.19" y2="59.83"/>
  <line class="cls-4" x1="329.32" y1="361" x2="329.32" y2="59.83"/>
  <line class="cls-4" x1="363.45" y1="361" x2="363.45" y2="59.83"/>
  <polyline class="cls-7" points="74.01 131.83 90.98 79.47 107.95 73.51 125.11 106.75 142.27 128.7 159.05 150.02 176.02 172.28 193.18 193.92 210.34 215.23 227.12 225.9 244.09 236.24 261.25 260.39 278.41 266.97 295.19 287.03 312.16 306.48 329.32 308.04 346.48 326.54 363.45 339.71 380.43 337.52"/>
  <polyline class="cls-2" points="74.01 141.76 90.98 140.5 107.95 161.3 125.11 177.36 142.27 206.67 159.05 205.73 176.02 163.81 193.18 105.21 210.34 115.92 227.12 103.94 244.09 126 261.25 154.36 278.41 163.5 295.19 215.49 312.16 217.38 329.32 231.88 346.48 267.48 363.45 282.29 380.43 285.44"/>
  <polyline class="cls-3" points="74.01 164.26 90.98 157.05 107.95 159.07 125.11 166.75 142.27 173.96 159.05 196.07 176.02 217.95 193.18 238.25 210.34 255.85 227.12 271.63 244.09 283.59 261.25 288.55 278.41 289.9 295.19 300.73 312.16 306.37 329.32 311.11 346.48 328.93 363.45 333.44 380.43 338.41"/>
  <polyline class="cls-5" points="74.01 174.08 90.98 170.47 107.95 182.83 125.11 190.81 142.27 183.21 159.05 206.79 176.02 216.49 193.18 229.8 210.34 249.19 227.12 245.39 244.09 268.02 261.25 283.61 278.41 276.19 295.19 288.55 312.16 277.53 329.32 284.18 346.48 314.42 363.45 331.34 380.43 347.31"/>
  <text class="cls-10" transform="translate(16.01 269.2)"><tspan x="0" y="0">−10%</tspan></text>
  <text class="cls-10" transform="translate(16.88 365.67)"><tspan x="0" y="0">−20%</tspan></text>
  <text class="cls-10" transform="translate(28.83 168.05)"><tspan x="0" y="0">0%</tspan></text>
  <text class="cls-10" transform="translate(23.26 66.29)"><tspan x="0" y="0">10%</tspan></text>
  <text class="cls-10" transform="translate(45.5 418.16) rotate(-45)"><tspan x="0" y="0">2020−01</tspan></text>
  <text class="cls-10" transform="translate(78.25 418.16) rotate(-45)"><tspan x="0" y="0">2020−07</tspan></text>
  <text class="cls-10" transform="translate(112.96 418.16) rotate(-45)"><tspan x="0" y="0">2021−01</tspan></text>
  <text class="cls-10" transform="translate(147.66 418.16) rotate(-45)"><tspan x="0" y="0">2021−07</tspan></text>
  <text class="cls-10" transform="translate(181.87 418.16) rotate(-45)"><tspan x="0" y="0">2022−01</tspan></text>
  <text class="cls-10" transform="translate(217.68 418.16) rotate(-45)"><tspan x="0" y="0">2022−07</tspan></text>
  <text class="cls-10" transform="translate(250.64 418.16) rotate(-45)"><tspan x="0" y="0">2023−01</tspan></text>
  <text class="cls-10" transform="translate(283.93 418.16) rotate(-45)"><tspan x="0" y="0">2023−07</tspan></text>
  <text class="cls-10" transform="translate(318.64 418.16) rotate(-45)"><tspan x="0" y="0">2024−01</tspan></text>
  <text class="cls-10" transform="translate(351.72 418.16) rotate(-45)"><tspan x="0" y="0">2024−07</tspan></text>
  <text class="cls-11" transform="translate(58.69 37.67)"><tspan x="0" y="0">Rent change </tspan><tspan class="cls-13" x="97.02" y="0">r</tspan><tspan x="102.83" y="0">ates since 2019 Q4</tspan></text>
  <g>
    <rect class="cls-9" x="82.05" y="273.59" width="117.84" height="79.26"/>
    <g id="LEGEND">
      <line class="cls-7" x1="90.27" y1="287.12" x2="104.1" y2="287.12"/>
      <line class="cls-2" x1="90.27" y1="304.4" x2="104.1" y2="304.4"/>
      <line class="cls-3" x1="90.27" y1="321.68" x2="104.1" y2="321.68"/>
      <line class="cls-5" x1="90.27" y1="338.96" x2="104.1" y2="338.96"/>
      <text class="cls-10" transform="translate(112.8 291.07)"><tspan x="0" y="0">&lt; 2 star offices</tspan></text>
      <text class="cls-10" transform="translate(112.8 308.35)"><tspan x="0" y="0">&lt; 2 star retail</tspan></text>
      <text class="cls-10" transform="translate(112.8 325.63)"><tspan x="0" y="0">4 star offices</tspan></text>
      <text class="cls-10" transform="translate(112.8 342.91)"><tspan x="0" y="0">5 star offices</tspan></text>
    </g>
  </g>
</svg>