<?xml version="1.0" encoding="UTF-8" standalone="no"?>
<!-- Created with Inkscape (http://www.inkscape.org/) -->

<svg
   width="200"
   height="30"
   viewBox="0 0 52.916666 7.9375"
   version="1.1"
   id="svg5"
   sodipodi:docname="line-graphic.svg"
   inkscape:version="1.2.2 (1:1.2.2+202305151914+b0a8486541)"
   xmlns:inkscape="http://www.inkscape.org/namespaces/inkscape"
   xmlns:sodipodi="http://sodipodi.sourceforge.net/DTD/sodipodi-0.dtd"
   xmlns="http://www.w3.org/2000/svg"
   xmlns:svg="http://www.w3.org/2000/svg">
  <sodipodi:namedview
     id="namedview7"
     pagecolor="#ffffff"
     bordercolor="#666666"
     borderopacity="1.0"
     inkscape:showpageshadow="2"
     inkscape:pageopacity="0.0"
     inkscape:pagecheckerboard="0"
     inkscape:deskcolor="#d1d1d1"
     inkscape:document-units="px"
     showgrid="true"
     inkscape:zoom="2.9006173"
     inkscape:cx="191.16621"
     inkscape:cy="-11.89402"
     inkscape:window-width="1920"
     inkscape:window-height="1016"
     inkscape:window-x="0"
     inkscape:window-y="0"
     inkscape:window-maximized="1"
     inkscape:current-layer="layer1">
    <inkscape:grid
       spacingx="1.3229166"
       spacingy="1.3229166"
       type="xygrid"
       id="grid132"
       originx="0"
       originy="0" />
  </sodipodi:namedview>
  <defs
     id="defs2" />
  <g
     inkscape:label="Layer 1"
     inkscape:groupmode="layer"
     id="layer1">
    <path
       style="fill:none;stroke:#f1c500;stroke-width:0.264583px;stroke-linecap:butt;stroke-linejoin:miter;stroke-opacity:1"
       d="M 0,1.3229166 H 2.6458332 L 5.2916663,2.6458332 H 7.9374996 L 10.583333,1.3229166 13.229166,6.614583 H 15.875 l 2.645833,-1.3229167 h 2.645833 l 2.645833,1.3229167 h 2.645834 L 29.104167,5.2916663 H 31.75 l 2.645833,-2.6458331 h 2.645834 l 2.64583,1.3229165 h 2.645834 l 2.645833,-1.3229165 h 2.645833 L 50.27083,1.3229166 h 2.645834"
       id="path314"
       sodipodi:nodetypes="ccccccccccccccccccccc" />
    <path
       style="fill:none;stroke:#dc4633;stroke-width:0.264583px;stroke-linecap:butt;stroke-linejoin:miter;stroke-opacity:1"
       d="M 0,2.6458332 H 2.6458332 L 5.2916663,1.3229166 h 2.6458333 l 2.6458334,1.3229166 2.645833,2.6458331 h 2.645833 l 2.645833,1.3229167 h 2.645834 l 2.645833,-1.3229167 h 2.645833 L 29.104166,6.614583 H 31.75 l 2.645833,-1.3229167 h 2.645831 2.645833 L 42.33333,6.614583 44.979163,5.2916663 h 4.13527 3.80223"
       id="path520"
       sodipodi:nodetypes="cccccccccccccccccccc" />
  </g>
</svg>
