<?xml version="1.0" encoding="UTF-8"?>
<svg id="Layer_1" data-name="Layer 1" xmlns="http://www.w3.org/2000/svg" xmlns:xlink="http://www.w3.org/1999/xlink" viewBox="0 0 760 427">
  <defs>
    <style>
      .cls-1, .cls-2, .cls-3, .cls-4, .cls-5, .cls-6, .cls-7, .cls-8 {
        fill: none;
      }

      .cls-9 {
        opacity: .3;
      }

      .cls-9, .cls-10, .cls-11 {
        fill: #fff;
      }

      .cls-2 {
        stroke: #f1c500;
      }

      .cls-2, .cls-3, .cls-4, .cls-5, .cls-6, .cls-7, .cls-8 {
        stroke-linejoin: round;
      }

      .cls-2, .cls-3, .cls-6, .cls-7 {
        stroke-width: 2.13px;
      }

      .cls-3 {
        stroke: #6fc7ea;
      }

      .cls-4 {
        stroke-dasharray: 6 6;
      }

      .cls-4, .cls-8 {
        stroke: #666;
        stroke-width: 1.36px;
      }

      .cls-5 {
        stroke: #333;
        stroke-width: .68px;
      }

      .cls-6 {
        stroke: #00a189;
      }

      .cls-7 {
        stroke: #dc4633;
      }

      .cls-10 {
        font-family: Roboto-Regular, Roboto;
        font-size: 12px;
        font-variation-settings: 'wght' 400, 'wdth' 100;
      }

      .cls-12 {
        fill: #191919;
      }

      .cls-13 {
        letter-spacing: 0em;
      }

      .cls-11 {
        font-family: TradeGothic-Bold, TradeGothic;
        font-size: 18px;
        font-weight: 700;
      }

      .cls-14 {
        clip-path: url(#clippath);
      }
    </style>
    <clipPath id="clippath">
      <rect class="cls-1" x=".5" y="-.5" width="759.5" height="427.5"/>
    </clipPath>
  </defs>
  <g class="cls-14">
    <rect class="cls-12" x=".5" y="-.5" width="759.5" height="427.5"/>
  </g>
  <line class="cls-5" x1="66.14" y1="313.74" x2="726.43" y2="313.74"/>
  <line class="cls-5" x1="66.14" y1="212.12" x2="726.43" y2="212.12"/>
  <line class="cls-5" x1="66.14" y1="110.51" x2="726.43" y2="110.51"/>
  <line class="cls-5" x1="95.97" y1="358.5" x2="95.97" y2="57.32"/>
  <line class="cls-5" x1="162.83" y1="358.5" x2="162.83" y2="57.32"/>
  <line class="cls-5" x1="229.5" y1="358.5" x2="229.5" y2="57.32"/>
  <line class="cls-5" x1="296.18" y1="358.5" x2="296.18" y2="57.32"/>
  <line class="cls-5" x1="362.86" y1="358.5" x2="362.86" y2="57.32"/>
  <line class="cls-5" x1="429.54" y1="358.5" x2="429.54" y2="57.32"/>
  <line class="cls-5" x1="496.21" y1="358.5" x2="496.21" y2="57.32"/>
  <line class="cls-5" x1="562.89" y1="358.5" x2="562.89" y2="57.32"/>
  <line class="cls-5" x1="629.74" y1="358.5" x2="629.74" y2="57.32"/>
  <line class="cls-5" x1="696.61" y1="358.5" x2="696.61" y2="57.32"/>
  <g>
    <line class="cls-8" x1="66.14" y1="262.93" x2="69.14" y2="262.93"/>
    <line class="cls-4" x1="75.15" y1="262.93" x2="720.43" y2="262.93"/>
    <line class="cls-8" x1="723.43" y1="262.93" x2="726.43" y2="262.93"/>
  </g>
  <g>
    <line class="cls-8" x1="66.42" y1="358.5" x2="69.42" y2="358.5"/>
    <line class="cls-4" x1="75.42" y1="358.5" x2="720.71" y2="358.5"/>
    <line class="cls-8" x1="723.71" y1="358.5" x2="726.71" y2="358.5"/>
  </g>
  <g>
    <line class="cls-8" x1="66.14" y1="161.31" x2="69.14" y2="161.31"/>
    <line class="cls-4" x1="75.15" y1="161.31" x2="720.43" y2="161.31"/>
    <line class="cls-8" x1="723.43" y1="161.31" x2="726.43" y2="161.31"/>
  </g>
  <g>
    <line class="cls-8" x1="66.14" y1="59.69" x2="69.14" y2="59.69"/>
    <line class="cls-4" x1="75.15" y1="59.69" x2="720.43" y2="59.69"/>
    <line class="cls-8" x1="723.43" y1="59.69" x2="726.43" y2="59.69"/>
  </g>
  <line class="cls-5" x1="129.4" y1="358.5" x2="129.4" y2="57.32"/>
  <line class="cls-5" x1="196.27" y1="358.5" x2="196.27" y2="57.32"/>
  <line class="cls-5" x1="262.76" y1="358.5" x2="262.76" y2="57.32"/>
  <line class="cls-5" x1="329.61" y1="358.5" x2="329.61" y2="57.32"/>
  <line class="cls-5" x1="396.1" y1="358.5" x2="396.1" y2="57.32"/>
  <line class="cls-5" x1="462.97" y1="358.5" x2="462.97" y2="57.32"/>
  <line class="cls-5" x1="529.46" y1="358.5" x2="529.46" y2="57.32"/>
  <line class="cls-5" x1="596.31" y1="358.5" x2="596.31" y2="57.32"/>
  <line class="cls-5" x1="663.18" y1="358.5" x2="663.18" y2="57.32"/>
  <polyline class="cls-7" points="96.15 129.33 129.4 76.97 162.65 71.01 196.27 104.24 229.88 126.2 262.76 147.51 296 169.78 329.61 191.42 363.22 212.73 396.1 223.4 429.36 233.74 462.97 257.89 496.58 264.47 529.46 284.53 562.7 303.98 596.31 305.54 629.92 324.04 663.18 337.21 696.43 335.01"/>
  <polyline class="cls-2" points="96.15 139.25 129.4 138 162.65 158.79 196.27 174.86 229.88 204.17 262.76 203.22 296 161.31 329.61 102.7 363.22 113.41 396.1 101.44 429.36 123.5 462.97 151.86 496.58 161 529.46 212.99 562.7 214.88 596.31 229.37 629.92 264.98 663.18 279.79 696.43 282.94"/>
  <polyline class="cls-3" points="96.15 161.76 129.4 154.55 162.65 156.57 196.27 164.24 229.88 171.46 262.76 193.57 296 215.45 329.61 235.75 363.22 253.34 396.1 269.13 429.36 281.09 462.97 286.05 496.58 287.4 529.46 298.23 562.7 303.87 596.31 308.6 629.92 326.42 663.18 330.94 696.43 335.91"/>
  <polyline class="cls-6" points="96.15 171.58 129.4 167.96 162.65 180.33 196.27 188.31 229.88 180.71 262.76 204.29 296 213.98 329.61 227.3 363.22 246.69 396.1 242.89 429.36 265.52 462.97 281.11 496.58 273.69 529.46 286.05 562.7 275.02 596.31 281.67 629.92 311.92 663.18 328.84 696.43 344.81"/>
  <text class="cls-10" transform="translate(23.46 266.7)"><tspan x="0" y="0">−10%</tspan></text>
  <text class="cls-10" transform="translate(24.33 363.16)"><tspan x="0" y="0">−20%</tspan></text>
  <text class="cls-10" transform="translate(36.28 165.55)"><tspan x="0" y="0">0%</tspan></text>
  <text class="cls-10" transform="translate(30.72 63.79)"><tspan x="0" y="0">10%</tspan></text>
  <text class="cls-10" transform="translate(71.64 411.66) rotate(-45)"><tspan x="0" y="0">2020−01</tspan></text>
  <text class="cls-10" transform="translate(137.17 411.66) rotate(-45)"><tspan x="0" y="0">2020−07</tspan></text>
  <text class="cls-10" transform="translate(204.22 411.66) rotate(-45)"><tspan x="0" y="0">2021−01</tspan></text>
  <text class="cls-10" transform="translate(269.56 411.66) rotate(-45)"><tspan x="0" y="0">2021−07</tspan></text>
  <text class="cls-10" transform="translate(337.14 411.66) rotate(-45)"><tspan x="0" y="0">2022−01</tspan></text>
  <text class="cls-10" transform="translate(403.34 411.66) rotate(-45)"><tspan x="0" y="0">2022−07</tspan></text>
  <text class="cls-10" transform="translate(470.64 411.66) rotate(-45)"><tspan x="0" y="0">2023−01</tspan></text>
  <text class="cls-10" transform="translate(538.27 411.66) rotate(-45)"><tspan x="0" y="0">2023−07</tspan></text>
  <text class="cls-10" transform="translate(604.92 411.66) rotate(-45)"><tspan x="0" y="0">2024−01</tspan></text>
  <text class="cls-10" transform="translate(671.28 411.66) rotate(-45)"><tspan x="0" y="0">2024−07</tspan></text>
  <g>
    <rect class="cls-9" x="103.91" y="271.08" width="117.84" height="79.26"/>
    <g id="LEGEND">
      <line class="cls-7" x1="112.14" y1="284.62" x2="125.97" y2="284.62"/>
      <line class="cls-2" x1="112.14" y1="301.9" x2="125.97" y2="301.9"/>
      <line class="cls-3" x1="112.14" y1="319.18" x2="125.97" y2="319.18"/>
      <line class="cls-6" x1="112.14" y1="336.46" x2="125.97" y2="336.46"/>
      <text class="cls-10" transform="translate(134.67 288.57)"><tspan x="0" y="0">&lt; 2 star offices</tspan></text>
      <text class="cls-10" transform="translate(134.67 305.85)"><tspan x="0" y="0">&lt; 2 star retail</tspan></text>
      <text class="cls-10" transform="translate(134.67 323.13)"><tspan x="0" y="0">4 star offices</tspan></text>
      <text class="cls-10" transform="translate(134.67 340.41)"><tspan x="0" y="0">5 star offices</tspan></text>
    </g>
  </g>
  <text class="cls-11" transform="translate(66.14 33.16)"><tspan x="0" y="0">Rent change </tspan><tspan class="cls-13" x="97.02" y="0">r</tspan><tspan x="102.83" y="0">ates since 2019 Q4</tspan></text>
</svg>